<?xml version="1.0" encoding="UTF-8"?>
<svg version="1.1" xmlns="http://www.w3.org/2000/svg" width="1152" height="428">
<path d="M0 0 C1.39830838 2.19692987 2.61925122 4.32352067 3.8125 6.625 C10.53281719 18.87326969 18.14018275 25.97300343 31.6875 30.3125 C47.83596092 34.8642884 65.01011797 34.00595972 80 26 C88.7178404 20.66032275 93.49808452 13.14317484 98.6875 4.5625 C101.91379397 -0.58916296 101.91379397 -0.58916296 105 -2 C111.31603412 -2.39605494 116.36979108 -1.30516815 122.375 0.5625 C124.22964962 1.12121591 126.08516247 1.6770722 127.94140625 2.23046875 C128.91996582 2.52228027 129.89852539 2.8140918 130.90673828 3.11474609 C134.12047589 4.03447874 137.34682842 4.86562068 140.58984375 5.67578125 C156.18552733 9.59254683 170.14904907 14.03928835 183 24 C183 24.66 183 25.32 183 26 C183.66 26 184.32 26 185 26 C186.35382149 27.48738235 187.63139886 29.04430551 188.875 30.625 C192.40066395 35.03348571 195.99328855 39.35709638 199.6875 43.625 C204.83177003 49.58837379 209.852466 55.64635525 214.8449707 61.73706055 C218.48290887 66.17109723 222.1565852 70.57078311 225.875 74.9375 C229.74780409 79.48629715 233.52880368 84.09583248 237.2109375 88.80078125 C238.86480593 90.83381166 240.61867673 92.67902662 242.4375 94.5625 C245.23839182 97.79959628 245.97051299 100.68670227 246.171875 104.9296875 C245.91986048 107.96531695 244.8967714 109.64538722 243 112 C242.401875 112.825 241.80375 113.65 241.1875 114.5 C238.68973502 117.35458854 235.93631686 119.60300664 233 122 C230.35491029 124.51606095 227.97653101 127.02917766 225.6875 129.875 C223.82871413 132.14653366 221.88081484 134.01444164 219.62890625 135.89453125 C215.88076272 139.13589196 212.37264551 142.56136007 208.890625 146.08203125 C208.3521846 146.62601563 207.8137442 147.17 207.25898743 147.73046875 C205.01645739 150.0005428 202.77779914 152.2743563 200.54345703 154.55249023 C198.89273302 156.23339593 197.23585568 157.90803936 195.578125 159.58203125 C195.07702209 160.09659378 194.57591919 160.61115631 194.05963135 161.14131165 C190.65935305 164.56580752 188.0613446 166.61649403 183.3125 167.5 C178.40668011 166.75949889 174.7142186 164.23879862 171 161 C169.734375 158.796875 169.734375 158.796875 169 157 C167.74349388 158.03355259 167.74349388 158.03355259 167.87974548 160.27875328 C167.88196609 161.29595263 167.88418671 162.31315197 167.88647461 163.36117554 C167.8865451 164.52463501 167.8866156 165.68809448 167.88668823 166.8868103 C167.89185455 168.17503693 167.89702087 169.46326355 167.90234375 170.79052734 C167.9042617 172.1521194 167.90572608 173.51371217 167.9067688 174.87530518 C167.9099386 177.81586371 167.91622093 180.7563938 167.92483521 183.69694138 C167.9383352 188.35432473 167.94424807 193.01169852 167.94897461 197.6690979 C167.96103943 208.41018022 167.98300155 219.15123813 168.00520325 229.89230347 C168.02541701 239.70856077 168.04349627 249.52480936 168.05341816 259.34108317 C168.05837703 263.96188719 168.06820349 268.58264663 168.08184814 273.2034328 C168.08936396 276.09492328 168.09263479 278.98640784 168.0948143 281.8779068 C168.097548 283.83791368 168.1053259 285.79791154 168.11331177 287.75790405 C168.11444875 306.9774819 168.11444875 306.9774819 165.3125 312.0625 C162.43065272 314.47702069 160.74680232 315.43444493 157 316 C153.71126579 315.50443731 150.81128941 314.79922522 148 313 C145.29848526 308.53965455 144.61505399 305.16389542 144.56762695 299.98486328 C144.5574353 299.31099075 144.54724365 298.63711823 144.53674316 297.94282532 C144.50676406 295.73523482 144.49737091 293.52807927 144.48828125 291.3203125 C144.47142327 289.78187637 144.45327153 288.24345393 144.43388367 286.70504761 C144.38649863 282.67081986 144.35661523 278.63664759 144.33044434 274.60223389 C144.30058051 270.47950283 144.25407028 266.35696271 144.20898438 262.234375 C144.12308221 254.15634407 144.05567909 246.07829553 144 238 C143.67 238 143.34 238 143 238 C143 236.35 143 234.7 143 233 C143.33 233 143.66 233 144 233 C144.00358253 232.16566091 144.00358253 232.16566091 144.00723743 231.31446648 C144.06642406 217.76797623 144.1421855 204.22166552 144.23571491 190.67536736 C144.28044573 184.12441105 144.31969612 177.57351734 144.34643555 171.02246094 C144.37244109 164.70054495 144.41282463 158.37886945 144.46318626 152.0571022 C144.47987347 149.64501054 144.49137617 147.23287726 144.49761391 144.82073593 C144.50723451 141.44257129 144.53527072 138.06502449 144.56762695 134.68701172 C144.56619186 133.68935287 144.56475677 132.69169403 144.5632782 131.6638031 C144.63476341 126.38776404 144.94952432 122.51388883 148 118 C152.17446219 115.21702521 155.99251513 114.31194864 161 115 C163.94511459 117.21322727 165.84036094 120.04524442 168 123 C169.14203145 124.19079234 170.30850532 125.35870133 171.5 126.5 C175.21642354 130.14900542 178.61790017 134.0422236 182 138 C186.83298806 133.97251947 191.38110004 129.75620587 195.80859375 125.2890625 C196.42017838 124.67606293 197.031763 124.06306335 197.66188049 123.43148804 C199.58947559 121.49835436 201.51353928 119.56175013 203.4375 117.625 C204.75432404 116.30315301 206.07137926 114.98153628 207.38867188 113.66015625 C210.59512373 110.44275701 213.79841629 107.22224319 217 104 C213.34126539 99.01872541 209.56843686 94.2138436 205.5 89.5625 C200.89976164 84.25083197 196.39206254 78.87185874 191.9375 73.4375 C186.80645022 67.18225122 181.64443005 60.9573505 176.390625 54.8046875 C174.93019973 53.09131275 173.47966945 51.36935938 172.046875 49.6328125 C161.79028187 37.38958196 149.03789237 34.17470433 134.125 29.75 C132.92875 29.38648437 131.7325 29.02296875 130.5 28.6484375 C129.34757812 28.30554688 128.19515625 27.96265625 127.0078125 27.609375 C125.97285645 27.29967773 124.93790039 26.98998047 123.87158203 26.67089844 C121.09557316 26.02232911 118.83479421 25.7359022 116 26 C114.12032741 27.71189467 114.12032741 27.71189467 112.625 30.0625 C101.46132586 45.37062827 85.49544141 53.6898021 67 57 C45.01553729 60.4153841 21.36765595 57.11273834 3 44 C-3.54434627 38.7781071 -9.55188925 33.14874942 -14 26 C-20.91214647 26.7579108 -27.53203814 28.5614247 -34.25 30.3125 C-35.41402344 30.60833984 -36.57804687 30.90417969 -37.77734375 31.20898438 C-59.71752312 36.89672404 -71.08626229 46.92098738 -84.74902344 64.58935547 C-88.09022201 68.89539841 -91.55969024 73.0655353 -95.125 77.1875 C-102.37442951 85.57110694 -109.4369654 94.06374447 -116 103 C-109.52795998 110.81804224 -102.25520113 117.85696833 -95.0625 125 C-93.79338627 126.2640885 -92.52450411 127.52840956 -91.25585938 128.79296875 C-88.1732368 131.86466724 -85.08749572 134.93320008 -82 138 C-81.22132568 137.22060059 -80.44265137 136.44120117 -79.64038086 135.63818359 C-78.01709434 134.01624794 -76.38926547 132.39882479 -74.75390625 130.7890625 C-71.21743342 127.29671679 -67.75972346 123.80845735 -64.5625 120 C-61.29834895 116.17855487 -61.29834895 116.17855487 -58.01171875 115.7265625 C-53.75014757 115.54034258 -51.64552662 115.54675791 -48.0625 118.0625 C-44.38744272 123.29667249 -43.75065867 128.64503719 -43.73498535 134.92704773 C-43.72841345 135.91796369 -43.72841345 135.91796369 -43.72170877 136.92889816 C-43.70947429 139.12283542 -43.71119094 141.31653082 -43.71289062 143.51049805 C-43.70686116 145.09123078 -43.69993559 146.67196032 -43.69218445 148.25268555 C-43.67733546 151.64659753 -43.66855641 155.04045109 -43.66447449 158.43439293 C-43.65774578 163.80030031 -43.63597566 169.16608272 -43.61193848 174.53193665 C-43.55887992 186.88603277 -43.52541579 199.24016731 -43.49217987 211.59432983 C-43.4614984 222.92760541 -43.42669152 234.26082709 -43.37586927 245.59403259 C-43.35251309 250.92929791 -43.33877814 256.26447569 -43.33237457 261.59978712 C-43.32644268 264.91489082 -43.31235289 268.22992327 -43.29603004 271.54499054 C-43.29014726 273.08329914 -43.28768323 274.62162514 -43.28886986 276.15994453 C-43.29002708 278.25808276 -43.27902874 280.35581949 -43.26501465 282.4539032 C-43.26208153 283.62839366 -43.25914841 284.80288412 -43.2561264 286.0129652 C-43.00878843 288.89750633 -42.50639634 290.56315842 -41 293 C-40.12605087 292.99333817 -39.25210175 292.98667633 -38.35166931 292.97981262 C-30.09812258 292.91959368 -21.84465009 292.87397086 -13.5909338 292.84456348 C-9.34804313 292.82893637 -5.10533466 292.80775243 -0.86254883 292.77368164 C3.23529783 292.7409823 7.33296971 292.72312477 11.43093681 292.71536827 C12.99097887 292.70984368 14.55101183 292.69905553 16.11097908 292.68280983 C18.3034411 292.66089425 20.49518945 292.65803886 22.68774414 292.65942383 C23.93350723 292.65276199 25.17927032 292.64610016 26.46278381 292.63923645 C31.43983163 293.1468496 35.53045889 294.39268941 39 298.1875 C40.37539387 302.05579525 40.18574742 305.08703351 39 309 C37.17890734 311.76101146 35.95798903 313.52100548 33 315 C23.16172081 316.39132498 13.1429538 316.16349367 3.23046875 316.16796875 C1.53802971 316.17118984 -0.15440905 316.17455452 -1.84684753 316.17805481 C-5.37080532 316.18400147 -8.89473873 316.18589902 -12.41870117 316.18530273 C-16.92192057 316.18520062 -21.42498406 316.19892383 -25.92816639 316.21607494 C-29.41382054 316.22721053 -32.89943693 316.22922157 -36.38510704 316.22869301 C-38.04560579 316.22986803 -39.70610567 316.23426278 -41.36658669 316.24202538 C-43.68696663 316.25187015 -46.00700666 316.2489312 -48.32739258 316.24291992 C-49.64355057 316.24434494 -50.95970856 316.24576996 -52.31575012 316.24723816 C-56.17911666 315.98798006 -59.36859489 315.3389426 -63 314 C-66.96537495 309.0954573 -68.1207288 305.33096835 -68.15821838 299.13447571 C-68.1680072 297.91029938 -68.17779602 296.68612305 -68.18788147 295.42485046 C-68.19378562 294.06619302 -68.19959607 292.70753516 -68.20532227 291.34887695 C-68.21490123 289.9198783 -68.22491132 288.49088249 -68.23532104 287.06188965 C-68.26237424 283.17997781 -68.28338156 279.2980538 -68.30332303 275.41609979 C-68.32518002 271.3601562 -68.35257011 267.30425012 -68.37937927 263.24833679 C-68.42931004 255.56673391 -68.47424745 247.88511021 -68.51740164 240.20346659 C-68.56677072 231.45867773 -68.62169007 222.7139265 -68.67708123 213.96917403 C-68.79090717 195.97948429 -68.89774489 177.98975904 -69 160 C-69.53181885 160.41862305 -70.0636377 160.83724609 -70.61157227 161.26855469 C-71.31854248 161.81415039 -72.0255127 162.35974609 -72.75390625 162.921875 C-73.4507251 163.46424805 -74.14754395 164.00662109 -74.86547852 164.56542969 C-78.18615101 166.79718899 -81.03065928 167.67425461 -85 167 C-92.67986444 163.3454971 -98.62011315 156.81224598 -104.50561523 150.83056641 C-106.08208888 149.23011315 -107.67188621 147.64380481 -109.26367188 146.05859375 C-117 138.27954636 -117 138.27954636 -117 136 C-117.639375 135.731875 -118.27875 135.46375 -118.9375 135.1875 C-121 134 -121 134 -122 131 C-122.598125 130.71125 -123.19625 130.4225 -123.8125 130.125 C-126.70915915 128.63528958 -127.9728636 126.54840005 -130 124 C-131.83132212 122.39017689 -133.70198591 120.85072971 -135.609375 119.33203125 C-136.06828125 118.89246094 -136.5271875 118.45289063 -137 118 C-137 117.34 -137 116.68 -137 116 C-137.5775 115.773125 -138.155 115.54625 -138.75 115.3125 C-142.85810612 112.91610477 -144.67282291 110.17783751 -145.9375 105.625 C-146.06998833 97.94067684 -141.79438217 93.14504042 -136.875 87.75 C-135.69672324 86.42553991 -134.51964466 85.10001294 -133.34375 83.7734375 C-132.77011719 83.12987305 -132.19648438 82.48630859 -131.60546875 81.82324219 C-129.46420862 79.39153133 -127.41330588 76.89334168 -125.375 74.375 C-122.13270988 70.37261256 -118.83611799 66.42400042 -115.5 62.5 C-112.14547904 58.55353876 -108.82778038 54.58357765 -105.5625 50.5625 C-101.51393204 45.58583072 -97.35454021 40.71160337 -93.16040039 35.85766602 C-92.67821045 35.29877686 -92.19602051 34.7398877 -91.69921875 34.1640625 C-90.99998291 33.35437012 -90.99998291 33.35437012 -90.28662109 32.52832031 C-89.15616565 31.18550227 -88.08275219 29.79509459 -87.01953125 28.3984375 C-84.6178628 25.54616588 -81.93295917 23.27251074 -79 21 C-78.49855469 20.5875 -77.99710937 20.175 -77.48046875 19.75 C-68.82842346 13.01361438 -58.01914143 10.2159156 -47.5625 7.5625 C-45.28338901 6.97053803 -43.00474891 6.37676034 -40.7265625 5.78125 C-39.60024414 5.48734375 -38.47392578 5.1934375 -37.31347656 4.890625 C-34.17933967 4.04820447 -31.06946225 3.15079191 -27.9609375 2.21875 C-27.02564209 1.9395874 -26.09034668 1.6604248 -25.12670898 1.37280273 C-23.39410855 0.85074183 -21.66418162 0.3196815 -19.93774414 -0.22241211 C-13.3513014 -2.1912482 -6.16240532 -3.87376635 0 0 Z " fill="#000000" transform="translate(152,12)"/>
<path d="M0 0 C3.375 1.0625 3.375 1.0625 5.4375 3 C7.35887643 9.27649634 4.57604404 16.08823759 2.375 22.0625 C3.550625 20.5775 3.550625 20.5775 4.75 19.0625 C5.61625 18.0725 6.4825 17.0825 7.375 16.0625 C8.035 16.0625 8.695 16.0625 9.375 16.0625 C9.375 15.4025 9.375 14.7425 9.375 14.0625 C16.80833879 7.73139228 25.21453972 1.75225694 35.375 2.0625 C40.99206415 3.22752071 44.68472477 5.61246222 48.375 10.0625 C52.04038681 15.69657513 51.11411532 23.60379209 50.375 30.0625 C49.18985395 34.98111044 47.46656092 39.46217851 45.375 44.0625 C44.9521875 44.99449219 44.529375 45.92648437 44.09375 46.88671875 C35.54489717 63.90987045 21.69906551 78.72132303 3.6875 85.4375 C-5.223834 87.11888377 -9.86063959 85.42004921 -17.625 81.0625 C-18.95614299 80.39147052 -20.28914651 79.72410235 -21.625 79.0625 C-28.98400179 94.45800622 -35.55983108 110.06255378 -41.76416016 125.95239258 C-49.99929854 146.97869903 -49.99929854 146.97869903 -54.625 150.0625 C-58.10246165 149.91452291 -60.1187085 149.40890997 -63 147.4375 C-65.19446982 144.23019795 -65.19457641 141.78901838 -64.625 138.0625 C-63.31401204 133.77241556 -61.63377821 129.65043114 -59.9375 125.5 C-59.45071777 124.28505859 -58.96393555 123.07011719 -58.46240234 121.81835938 C-53.72578361 110.05352121 -48.66868145 98.42407717 -43.5703125 86.8125 C-41.60448785 82.32212909 -39.65381165 77.8262436 -37.7421875 73.3125 C-37.33339355 72.34828125 -36.92459961 71.3840625 -36.50341797 70.390625 C-35.50732829 68.16534906 -35.50732829 68.16534906 -35.625 66.0625 C-36.28886719 66.6090625 -36.95273437 67.155625 -37.63671875 67.71875 C-41.14848954 70.47308003 -44.76595583 73.02730393 -48.4375 75.5625 C-49.11103516 76.03558594 -49.78457031 76.50867188 -50.47851562 76.99609375 C-60.44545311 83.88234147 -71.19062514 89.52654736 -83.625 88.0625 C-89.24439098 86.7951898 -92.93661963 84.59393874 -96.625 80.0625 C-99.07839567 75.88264072 -100.33307867 71.71341678 -101.625 67.0625 C-102.61757813 67.84753906 -103.61015625 68.63257813 -104.6328125 69.44140625 C-117.05348501 79.10654495 -130.3189991 88.76261572 -146.7734375 88.4453125 C-152.9619401 87.61452722 -157.92752849 84.8003875 -162.25 80.375 C-163.625 78.0625 -163.625 78.0625 -163.625 76.0625 C-164.285 75.7325 -164.945 75.4025 -165.625 75.0625 C-166.7956914 53.80794728 -159.91946469 36.09213092 -145.625 20.0625 C-137.31935579 10.83400644 -127.01534233 2.12659253 -114.28125 0.68359375 C-105.67812101 0.38325929 -105.67812101 0.38325929 -101.86328125 2.84375 C-98.39083586 6.28589482 -97.32833693 8.88527654 -97.25 13.75 C-97.53564182 24.6043891 -104.48570065 33.59226092 -111.6875 41.2578125 C-121.6802217 50.6259891 -134.73411403 58.85459687 -148.625 60.0625 C-148.48392253 61.52130109 -148.33697585 62.97953551 -148.1875 64.4375 C-148.10628906 65.24960937 -148.02507813 66.06171875 -147.94140625 66.8984375 C-147.73409886 69.10522805 -147.73409886 69.10522805 -146.625 71.0625 C-139.83950632 73.32433123 -133.72634333 70.48329307 -127.546875 67.65234375 C-119.13237443 63.3536315 -111.84350625 58.09717123 -104.625 52.0625 C-103.88507812 51.45019531 -103.14515625 50.83789062 -102.3828125 50.20703125 C-97.24737722 45.53564132 -93.90617477 39.94368765 -90.33520508 34.0637207 C-81.80738123 20.05243906 -70.69092513 7.80268487 -55.125 1.6875 C-48.96637205 0.58774501 -43.79738198 -0.06248352 -38.125 2.875 C-34.71422732 5.8594261 -33.10442464 8.39026671 -32.609375 12.921875 C-32.69436981 24.56616367 -39.84038956 33.24893444 -47.5 41.3125 C-57.28478611 50.62321701 -69.54744997 57.65602255 -82.625 61.0625 C-82.53791331 62.52195288 -82.42973093 63.98015868 -82.3125 65.4375 C-82.25449219 66.24960937 -82.19648437 67.06171875 -82.13671875 67.8984375 C-81.79509472 70.44171338 -81.79509472 70.44171338 -78.625 72.0625 C-63.419169 71.7909673 -49.74578094 60.38241992 -38.625 51.0625 C-37.92503906 50.49789062 -37.22507812 49.93328125 -36.50390625 49.3515625 C-24.09757149 39.04922604 -16.96891772 25.9532259 -11.60351562 11.01806641 C-9.30753042 4.88325996 -7.28763775 0.12564893 0 0 Z M-130.75 26.8125 C-135.62263539 31.89019619 -141.33540631 37.94524873 -142.625 45.0625 C-133.15353441 42.63391908 -124.469985 35.6550198 -118.375 28.1875 C-117.68921875 27.36507813 -117.0034375 26.54265625 -116.296875 25.6953125 C-114.43141471 22.7576484 -113.96553799 20.49792739 -113.625 17.0625 C-120.68532178 17.0625 -125.80410858 22.07830043 -130.75 26.8125 Z M-64.5625 25.5625 C-73.16233633 34.35345001 -73.16233633 34.35345001 -77.625 45.0625 C-66.22142751 41.80433643 -55.57699164 32.24062697 -49.625 22.0625 C-48.68897324 19.26169466 -48.68897324 19.26169466 -48.625 17.0625 C-55.32098707 17.0625 -59.81098691 21.08602459 -64.5625 25.5625 Z M14.05908203 28.73535156 C13.37958496 29.44143555 12.70008789 30.14751953 12 30.875 C11.27538574 31.61331055 10.55077148 32.35162109 9.80419922 33.11230469 C-4.82514929 47.7235353 -4.82514929 47.7235353 -12.625 66.0625 C-12.29166667 68.39583333 -12.29166667 68.39583333 -10.625 70.0625 C-5.15011528 71.88746157 -1.21758882 70.67161232 3.83984375 68.3984375 C17.85763079 61.01156051 27.67203411 46.5483718 33.375 32.0625 C35.01179362 26.6538168 35.01179362 26.6538168 35.375 21.0625 C34.12294902 19.21075016 34.12294902 19.21075016 32.375 18.0625 C25.40922046 18.0625 18.71964973 24.10709476 14.05908203 28.73535156 Z M0.375 23.0625 C1.375 25.0625 1.375 25.0625 1.375 25.0625 Z " fill="#000000" transform="translate(661.625,233.9375)"/>
<path d="M0 0 C3.35257489 2.14908647 3.89145337 3.57356681 4.875 7.4375 C4.9993097 10.98032632 4.60365676 12.88701924 3 16 C7.85586973 16.07832048 12.43799174 15.97722186 17.25 15.3125 C20.5410751 14.95477445 21.84482547 14.93857675 25 16.1875 C27.17769112 18.16103258 28.21288482 19.16638536 29 22 C28.750098 28.55576255 26.08237992 32.68947621 22.5 38.0625 C21.96117187 38.89450928 21.42234375 39.72651855 20.8671875 40.58374023 C18.80448376 43.76364 16.71419116 46.92467828 14.6171875 50.08203125 C6.16728617 62.07256957 6.16728617 62.07256957 3 76 C17.1885122 69.68201508 28.20500064 60.7943293 39.52734375 50.2890625 C42.41581245 47.61506146 45.37629358 45.03552802 48.36328125 42.47265625 C50.15951226 40.91610981 50.15951226 40.91610981 52.125 38.5625 C54 37 54 37 57.125 36.625 C60 37 60 37 62 39 C62.62350768 43.00989803 62.2451278 44.63064883 59.98046875 48.04296875 C59.06600642 49.10559543 58.1338751 50.15319299 57.1875 51.1875 C56.69121094 51.74920898 56.19492188 52.31091797 55.68359375 52.88964844 C54.14330436 54.61372235 52.57868928 56.31106567 51 58 C50.53029785 58.50289551 50.0605957 59.00579102 49.57666016 59.52392578 C43.192908 66.27636523 36.36080009 72.33701949 29 78 C27.78376953 78.94166016 27.78376953 78.94166016 26.54296875 79.90234375 C18.47749692 85.85698127 7.50336013 93.19130739 -3 92 C-7.12273582 90.75376 -10.07936758 89.0394237 -12.9375 85.8125 C-16.5632907 76.21481874 -14.01277287 68.11972893 -10 59 C-7.63264655 54.15838867 -4.83751688 49.57787762 -2 45 C-1.23491879 43.74525372 -0.47060287 42.49004051 0.29296875 41.234375 C2.17776535 38.14523158 4.08297824 35.06927419 6 32 C2.37 31.67 -1.26 31.34 -5 31 C-5.66 32.65 -6.32 34.3 -7 36 C-8.15405273 37.83007812 -8.15405273 37.83007812 -9.43359375 39.53125 C-10.15059448 40.48946655 -10.15059448 40.48946655 -10.88208008 41.46704102 C-11.39536865 42.13791748 -11.90865723 42.80879395 -12.4375 43.5 C-13.24320435 44.55948853 -13.24320435 44.55948853 -14.06518555 45.64038086 C-43.63388809 84.22960163 -43.63388809 84.22960163 -64 90 C-68.52691862 90.38363717 -72.03241627 90.29702216 -76 88 C-79.39769215 84.56391585 -81.94952469 81.68385635 -82.09765625 76.7421875 C-82.08605469 75.46601563 -82.07445312 74.18984375 -82.0625 72.875 C-82.05347656 71.59367187 -82.04445313 70.31234375 -82.03515625 68.9921875 C-82.02355469 68.00476563 -82.01195312 67.01734375 -82 66 C-82.67804688 66.845625 -83.35609375 67.69125 -84.0546875 68.5625 C-91.80911102 78.07552853 -100.04562845 87.67849627 -112.375 90.875 C-117.69401581 91.05841434 -121.57981604 89.92866757 -125.76953125 86.58984375 C-130.21550073 82.01406494 -131.27471001 77.2149849 -132 71 C-132.57105469 71.556875 -133.14210938 72.11375 -133.73046875 72.6875 C-144.60741606 82.92462688 -157.37034333 91.64557463 -172.75 92.5 C-178.7420148 92.17998448 -183.93187849 89.85042451 -188.375 85.875 C-193.93707968 76.0343975 -193.9189923 66.80998474 -191.04101562 56.12670898 C-185.43853098 37.41119573 -173.54623178 22.4982513 -158 11 C-157.37867188 10.53722656 -156.75734375 10.07445312 -156.1171875 9.59765625 C-153.48358018 7.73825008 -151.18355905 6.53059318 -148 6 C-147.40316406 5.83371094 -146.80632813 5.66742188 -146.19140625 5.49609375 C-141.12055552 4.34814715 -135.8303268 4.18219441 -131.0625 6.3125 C-126.95613892 9.67224998 -125.24944681 11.5554213 -124.6875 17.0625 C-125.62268735 28.84586057 -133.35040465 39.24365531 -142.12109375 46.8046875 C-150.29065611 53.4359702 -159.32604006 59.99145405 -169.625 62.5625 C-173.47382278 63.52105265 -173.47382278 63.52105265 -175.75 66.875 C-176.02030802 70.25385023 -175.572272 72.03015289 -174 75 C-157.36992723 76.27379281 -144.24330703 65.64250847 -132.0625 55.4375 C-124.19011029 48.66833037 -118.079851 41.18051428 -112.0625 32.765625 C-103.37822727 21.12080475 -91.9014095 8.29780197 -77.0390625 5.21875 C-71.69284005 4.64520889 -67.40227176 5.27289612 -62.625 7.75 C-60 10 -60 10 -58.6875 12.6875 C-57.26188325 15.18142207 -57.26188325 15.18142207 -54.9609375 15.43359375 C-53.361848 15.56120838 -51.76143446 15.67319419 -50.16015625 15.76953125 C-47.31995135 16.07255492 -45.89328114 16.87005872 -44 19 C-42.95328982 21.55617643 -42.84124902 22.61140521 -43.8984375 25.19921875 C-44.38570312 26.02035156 -44.87296875 26.84148437 -45.375 27.6875 C-45.92800781 28.65300781 -46.48101563 29.61851562 -47.05078125 30.61328125 C-47.69402344 31.73089844 -48.33726562 32.84851563 -49 34 C-60.04071333 52.95240008 -60.04071333 52.95240008 -64 74 C-55.16618438 70.5701664 -49.08493878 64.93530622 -42.4453125 58.41015625 C-41.24598986 57.24000632 -40.01714565 56.10020376 -38.78125 54.96875 C-34.36391394 50.84107532 -30.77061902 46.22271474 -27.1875 41.375 C-26.71876465 40.74102295 -26.2500293 40.1070459 -25.76708984 39.45385742 C-20.016762 31.61301278 -20.016762 31.61301278 -19.5 22.1875 C-20.12175083 16.4857623 -19.94977608 12.02554443 -17 7 C-12.03833631 1.5685252 -7.53837651 -1.04492348 0 0 Z M-159.96875 32.6328125 C-163.78958668 37.08555679 -166.8894317 42.03632719 -170 47 C-169.67 47.66 -169.34 48.32 -169 49 C-157.60485667 43.27490383 -148.59045796 36.08160555 -142 25 C-141.2704314 22.80177773 -141.2704314 22.80177773 -141 21 C-149.04452761 20.4442468 -154.65488999 27.21351876 -159.96875 32.6328125 Z M-99.5390625 41.53125 C-105.53225129 49.88510751 -111.83347251 58.78149631 -114 69 C-113.57463514 71.17844964 -113.57463514 71.17844964 -113 73 C-113.495 73.495 -113.495 73.495 -114 74 C-113.01 74.33 -112.02 74.66 -111 75 C-102.85036493 70.87386713 -96.3302277 63.80114024 -90 57.375 C-89.51954224 56.88988953 -89.03908447 56.40477905 -88.54406738 55.90496826 C-73.96596435 42.52640056 -73.96596435 42.52640056 -67 25 C-68.33333333 22.33333333 -68.33333333 22.33333333 -71 21 C-83.08994947 18.85067565 -93.27712993 33.02194043 -99.5390625 41.53125 Z M-81 63 C-80 65 -80 65 -80 65 Z " fill="#000000" transform="translate(1078,230)"/>
<path d="M0 0 C10.03420823 9.23280724 14.59726659 21.4680049 15.49609375 34.8671875 C15.77192827 57.23736729 2.19792011 78.26593729 -12.4765625 94.22265625 C-14.10841907 95.86513228 -15.7753309 97.45247442 -17.46484375 99.03515625 C-19.89038094 101.4372205 -22.29214752 103.8541187 -24.6484375 106.32421875 C-43.20859987 125.55988096 -66.98523893 139.63476239 -90.46484375 152.03515625 C-91.14063477 152.39351562 -91.81642578 152.751875 -92.51269531 153.12109375 C-101.4928684 157.8071674 -110.70376549 161.29725655 -120.33984375 164.41015625 C-121.37375244 164.74418457 -122.40766113 165.07821289 -123.47290039 165.42236328 C-129.41141286 167.27163481 -135.2281218 168.64203876 -141.38720703 169.52978516 C-142.41563721 169.77994385 -142.41563721 169.77994385 -143.46484375 170.03515625 C-143.95984375 171.02515625 -143.95984375 171.02515625 -144.46484375 172.03515625 C-145.45484375 172.03515625 -146.44484375 172.03515625 -147.46484375 172.03515625 C-147.46484375 171.04515625 -147.46484375 170.05515625 -147.46484375 169.03515625 C-148.39296875 168.84953125 -148.39296875 168.84953125 -149.33984375 168.66015625 C-151.46484375 168.03515625 -151.46484375 168.03515625 -153.46484375 166.03515625 C-154.01832965 159.17193113 -154.01832965 159.17193113 -152.44921875 155.94921875 C-149.51753013 153.12140886 -146.2653806 152.37131515 -142.40234375 151.28515625 C-141.66951172 151.06472656 -140.93667969 150.84429687 -140.18164062 150.6171875 C-134.83123059 149.03515625 -134.83123059 149.03515625 -132.46484375 149.03515625 C-132.366875 148.12636719 -132.26890625 147.21757812 -132.16796875 146.28125 C-128.55427855 115.90756084 -115.5610094 87.05561457 -101.55419922 60.13574219 C-100.30446047 57.72589186 -99.07476165 55.30618637 -97.84375 52.88671875 C-83.77829612 25.42489169 -83.77829612 25.42489169 -75.46484375 18.03515625 C-71.43364044 16.88338388 -69.42603256 16.59635266 -65.58984375 18.34765625 C-62.9936894 20.40930823 -62.57357481 21.34826872 -62.05859375 24.6015625 C-62.65174691 29.61484735 -65.19057967 32.83709238 -67.96484375 36.97265625 C-89.03156756 69.73398088 -105.48785032 106.7239334 -116.46484375 144.03515625 C-95.09252397 135.24602858 -74.85988119 124.04865683 -56.46484375 110.03515625 C-55.50578125 109.30683594 -54.54671875 108.57851563 -53.55859375 107.828125 C-47.61250362 103.17586004 -41.98392156 98.18348684 -36.46484375 93.03515625 C-35.58957031 92.23722656 -34.71429688 91.43929687 -33.8125 90.6171875 C-19.19580693 76.75544558 -4.94048595 57.30177729 -4.02734375 36.53515625 C-4.23513078 29.30416762 -6.1835925 22.11968468 -11.46484375 17.03515625 C-11.46484375 16.37515625 -11.46484375 15.71515625 -11.46484375 15.03515625 C-12.19574219 14.74640625 -12.92664063 14.45765625 -13.6796875 14.16015625 C-15.36994013 13.47741746 -17.0524564 12.77444769 -18.71875 12.03515625 C-42.0972206 1.90844141 -68.70638402 7.67912026 -91.52734375 16.59765625 C-107.14311207 22.95443484 -122.363668 32.29308701 -133.08984375 45.46875 C-134.46484375 47.03515625 -134.46484375 47.03515625 -136.46484375 48.03515625 C-139.56163893 48.11742405 -142.4674977 47.82421993 -145.46484375 47.03515625 C-147.58984375 44.91015625 -147.58984375 44.91015625 -148.46484375 42.03515625 C-148.01041557 33.64799267 -143.15826748 28.68428754 -137.46484375 23.03515625 C-119.70388535 7.15118156 -97.43415207 -3.24534098 -74.46484375 -8.96484375 C-72.56798828 -9.44630859 -72.56798828 -9.44630859 -70.6328125 -9.9375 C-47.64594705 -15.14004993 -19.16359667 -15.27621097 0 0 Z " fill="#000000" transform="translate(499.46484375,179.96484375)"/>
<path d="M0 0 C7.66801683 3.97600872 7.66801683 3.97600872 9 8 C8.67946624 36.92817188 -10.73879873 68.17422794 -30 88.375 C-35.17016675 93.40286859 -39.80616461 97.06498401 -47.1875 97.4375 C-52.45299552 96.83326281 -54.74269832 95.39700187 -58.25 91.5 C-61.23013736 87.24266092 -61.10911102 83.89310102 -61.0625 78.8125 C-61.05347656 77.54019531 -61.04445313 76.26789063 -61.03515625 74.95703125 C-61.02355469 73.98121094 -61.01195312 73.00539063 -61 72 C-61.56847656 72.78503906 -62.13695312 73.57007813 -62.72265625 74.37890625 C-76.5411701 93.18039003 -76.5411701 93.18039003 -88 97 C-92.14197729 97 -95.38365141 96.00908255 -99 94 C-102.70027216 90.29972784 -104.89915816 86.44373393 -105.1171875 81.16015625 C-103.45300498 59.87472501 -93.59766955 40.62662414 -82.5625 22.625 C-81.98024658 21.66327881 -81.98024658 21.66327881 -81.38623047 20.68212891 C-79.06473849 17.05723781 -76.95696215 14.75653608 -73 13 C-69.06225797 13.06908319 -66.77301709 13.47821346 -63.5 15.6875 C-62 18 -62 18 -62.0625 20.5078125 C-63.4107995 25.53022812 -65.93008877 29.69142874 -68.5 34.1875 C-72.56548507 41.46933829 -76.48949997 48.77532327 -80.0625 56.3125 C-80.41957031 57.05717529 -80.77664063 57.80185059 -81.14453125 58.5690918 C-85.89362934 68.37871173 -85.89362934 68.37871173 -87 79 C-86.21625 78.34 -85.4325 77.68 -84.625 77 C-82 75 -82 75 -80 75 C-79.74992188 74.42636719 -79.49984375 73.85273438 -79.2421875 73.26171875 C-77.82653636 70.68416526 -76.16877721 68.92739766 -74.125 66.8125 C-68.19977776 60.36249962 -63.36478052 53.20475508 -58.39404297 46.01074219 C-56.45648488 43.21604369 -54.48675543 40.44749917 -52.5 37.6875 C-51.9121875 36.86636719 -51.324375 36.04523438 -50.71875 35.19921875 C-46.03578947 29.20715789 -46.03578947 29.20715789 -41.25 28.25 C-40.1775 28.1675 -39.105 28.085 -38 28 C-34.64640158 31.49940705 -34.0046966 35.29191895 -34 40 C-34.59285399 42.860941 -35.59920552 45.48139394 -36.6875 48.1875 C-37.24920296 49.68161353 -37.80908282 51.17641366 -38.3671875 52.671875 C-38.64530273 53.40341797 -38.92341797 54.13496094 -39.20996094 54.88867188 C-42.32126191 63.20342181 -44.50469771 71.12968891 -45 80 C-39.68824566 76.53552656 -36.12088325 73.11570232 -32.5 67.9375 C-31.79290894 66.94459961 -31.79290894 66.94459961 -31.0715332 65.93164062 C-20.21461441 50.49234054 -14.18239306 34.81621654 -9.53515625 16.65551758 C-6.82202519 6.35831726 -6.82202519 6.35831726 -3 2 C-2.01 2 -1.02 2 0 2 C0 1.34 0 0.68 0 0 Z " fill="#000000" transform="translate(888,223)"/>
<path d="M0 0 C0.66 0 1.32 0 2 0 C3.63416708 2.36620103 5.14421907 4.72722391 6.625 7.1875 C7.53119977 8.67190566 8.43745038 10.1562803 9.34375 11.640625 C9.79363281 12.38248047 10.24351562 13.12433594 10.70703125 13.88867188 C11.8328715 15.72709077 12.99178625 17.54517422 14.15625 19.359375 C17.97699454 25.33307877 21.32413737 31.41932207 24.375 37.8125 C24.87604248 38.85265259 24.87604248 38.85265259 25.38720703 39.91381836 C29.7893834 49.39447045 31.69689301 58.43460068 28.4375 68.5625 C25.3437277 76.31321377 20.68519081 81.90412861 12.96875 85.2578125 C4.58810071 88.41718425 -3.50733379 89.35236824 -12 86 C-20.45615809 81.43140452 -25.66902425 76.1601833 -29 67 C-33.1749231 50.35597323 -23.59799925 35.15881546 -15.46044922 21.36962891 C-5.96831364 5.96831364 -5.96831364 5.96831364 0 0 Z " fill="#000000" transform="translate(259,278)"/>
<path d="M0 0 C3.4077089 1.13590297 3.72426622 1.67146515 5.56640625 4.5859375 C6.04722656 5.34261719 6.52804688 6.09929687 7.0234375 6.87890625 C7.53132813 7.70261719 8.03921875 8.52632812 8.5625 9.375 C9.08972656 10.22191406 9.61695313 11.06882813 10.16015625 11.94140625 C32.0748074 47.60539381 32.0748074 47.60539381 30 65 C27.30722273 74.77704646 22.47319071 81.73713631 13.75 86.9375 C4.840649 89.46181612 -3.46513519 89.93584137 -12 86 C-19.0141525 82.07958976 -23.90528212 76.32849894 -26.84765625 68.84375 C-31.71638418 51.04548631 -20.84406026 33.59757864 -12.52001953 18.609375 C-8.74939081 12.13644218 -4.41843549 6.04223189 0 0 Z " fill="#000000" transform="translate(204,195)"/>
<path d="M0 0 C5.22255274 3.95341627 6.8925652 11.09285586 8.56640625 17.125 C8.78683594 17.87910156 9.00726562 18.63320312 9.234375 19.41015625 C10.11265417 22.48140576 10.81640625 25.16532725 10.81640625 28.375 C15.93658886 24.37689996 20.95204682 20.31543926 25.75390625 15.9375 C30.94705907 11.21050421 36.30609898 6.72753339 41.81640625 2.375 C42.71552734 1.65570313 42.71552734 1.65570313 43.6328125 0.921875 C47.06055449 -1.61984491 49.59428399 -2.18794964 53.81640625 -1.625 C56.81640625 0.375 56.81640625 0.375 57.62890625 2.75 C57.83730332 5.66755898 57.35297587 6.9345659 55.81640625 9.375 C55.15640625 9.375 54.49640625 9.375 53.81640625 9.375 C53.48640625 10.365 53.15640625 11.355 52.81640625 12.375 C50.8046875 14.21484375 50.8046875 14.21484375 48.12890625 16.3125 C43.60316717 19.92721368 39.1479983 23.60117978 34.75390625 27.375 C34.16569092 27.87990967 33.57747559 28.38481934 32.97143555 28.9050293 C27.84954422 33.31805257 22.81076212 37.81793796 17.81640625 42.375 C19.72362481 53.81831135 24.22878239 62.71458895 32.9609375 70.4375 C34.93347454 72.49724394 35.58056253 73.55637998 35.81640625 76.375 C34.17564133 79.82060634 33.03128183 81.23174962 29.81640625 83.375 C24.38973117 83.78515567 19.67311185 82.48110959 15.44140625 79.08203125 C10.5380706 73.93117145 3.81640625 63.728234 3.81640625 56.375 C-3.10157735 62.12256946 -9.37733693 68.4785157 -15.69287109 74.8671875 C-26.37086227 85.66759259 -26.37086227 85.66759259 -30.74609375 87.375 C-33.97364206 87.375 -35.60256278 86.23907792 -38.18359375 84.375 C-39.18359375 83.375 -39.18359375 83.375 -39.68359375 80.8125 C-38.27362114 71.1189383 -24.53289213 61.61668358 -17.74609375 54.875 C-16.42880316 53.56273415 -15.11174389 52.25023605 -13.79492188 50.9375 C-10.59380765 47.74731494 -7.3895751 44.56029349 -4.18359375 41.375 C-7.40460721 30.24145669 -7.40460721 30.24145669 -10.8359375 19.171875 C-11.05443359 18.48222656 -11.27292969 17.79257813 -11.49804688 17.08203125 C-11.9294927 15.7268315 -12.37303852 14.37544687 -12.82617188 13.02734375 C-13.81780033 9.83582571 -14.28666277 7.77009789 -13.43359375 4.5 C-10.12932694 -1.11725358 -5.92660884 -2.12138124 0 0 Z " fill="#000000" transform="translate(737.18359375,236.625)"/>
<path d="M0 0 C3.5377242 1.1792414 3.82475116 1.87648005 5.671875 4.98046875 C6.1683252 5.80844971 6.66477539 6.63643066 7.17626953 7.48950195 C7.69560059 8.37984131 8.21493164 9.27018066 8.75 10.1875 C9.28351074 11.09137451 9.81702148 11.99524902 10.36669922 12.92651367 C26.25678056 40.10158908 26.25678056 40.10158908 23.3828125 52.70703125 C20.942526 60.60017034 17.15216539 64.96559584 10.08984375 69.125 C3.98601285 71.93251154 -2.73633257 71.457098 -9.01171875 69.3125 C-14.92650896 66.3351674 -19.51073856 60.97852288 -22.4375 55.125 C-25.46584006 38.30088854 -16.58027544 23.43147456 -7.26171875 10.0078125 C-4.88391173 6.63970504 -2.45593342 3.311484 0 0 Z " fill="#000000" transform="translate(190,345)"/>
<path d="M0 0 C0.33 0 0.66 0 1 0 C1 5.94 1 11.88 1 18 C0.67 18 0.34 18 0 18 C0 12.06 0 6.12 0 0 Z " fill="#000000" transform="translate(295,267)"/>
<path d="M0 0 C0.33 0 0.66 0 1 0 C1 2.97 1 5.94 1 9 C0.67 9 0.34 9 0 9 C0 6.03 0 3.06 0 0 Z " fill="#000000" transform="translate(295,187)"/>
<path d="M0 0 C0.33 0 0.66 0 1 0 C1 2.97 1 5.94 1 9 C0.67 9 0.34 9 0 9 C0 6.03 0 3.06 0 0 Z " fill="#000000" transform="translate(295,163)"/>
<path d="M0 0 C0.33 0 0.66 0 1 0 C1 2.64 1 5.28 1 8 C0.67 8 0.34 8 0 8 C0 5.36 0 2.72 0 0 Z " fill="#000000" transform="translate(295,206)"/>
<path d="M0 0 C0.33 0 0.66 0 1 0 C1 2.31 1 4.62 1 7 C0.67 7 0.34 7 0 7 C0 4.69 0 2.38 0 0 Z " fill="#000000" transform="translate(295,259)"/>
<path d="M0 0 C0.33 0 0.66 0 1 0 C1 2.31 1 4.62 1 7 C0.67 7 0.34 7 0 7 C0 4.69 0 2.38 0 0 Z " fill="#000000" transform="translate(295,251)"/>
<path d="M0 0 C0.33 0 0.66 0 1 0 C1 1.98 1 3.96 1 6 C0.67 6 0.34 6 0 6 C0 4.02 0 2.04 0 0 Z " fill="#000000" transform="translate(295,155)"/>
<path d="M0 0 C0.33 0 0.66 0 1 0 C1 1.65 1 3.3 1 5 C0.67 5 0.34 5 0 5 C0 3.35 0 1.7 0 0 Z " fill="#000000" transform="translate(295,219)"/>
<path d="M0 0 C0.33 0 0.66 0 1 0 C1 1.65 1 3.3 1 5 C0.67 5 0.34 5 0 5 C0 3.35 0 1.7 0 0 Z " fill="#000000" transform="translate(295,199)"/>
<path d="M0 0 C0.33 0 0.66 0 1 0 C1 1.65 1 3.3 1 5 C0.67 5 0.34 5 0 5 C0 3.35 0 1.7 0 0 Z " fill="#000000" transform="translate(295,181)"/>
<path d="M0 0 C4 1 4 1 4 1 Z " fill="#000000" transform="translate(514,323)"/>
<path d="M0 0 C0.66 0.66 1.32 1.32 2 2 C1.01 2.495 1.01 2.495 0 3 C0 2.01 0 1.02 0 0 Z " fill="#000000" transform="translate(832,318)"/>
<path d="M0 0 C1 4 1 4 1 4 Z " fill="#000000" transform="translate(825,303)"/>
<path d="M0 0 C4 1 4 1 4 1 Z " fill="#000000" transform="translate(653,303)"/>
<path d="M0 0 C1 4 1 4 1 4 Z " fill="#000000" transform="translate(295,286)"/>
<path d="M0 0 C1 4 1 4 1 4 Z " fill="#000000" transform="translate(295,237)"/>
<path d="M0 0 C3 1 3 1 3 1 Z " fill="#000000" transform="translate(254,367)"/>
<path d="M0 0 C0.66 0 1.32 0 2 0 C1.67 0.66 1.34 1.32 1 2 C0.67 1.34 0.34 0.68 0 0 Z " fill="#000000" transform="translate(268,365)"/>
<path d="" fill="#000000" transform="translate(0,0)"/>
<path d="" fill="#000000" transform="translate(0,0)"/>
<path d="" fill="#000000" transform="translate(0,0)"/>
<path d="M0 0 C0.33 0.66 0.66 1.32 1 2 C0.34 1.67 -0.32 1.34 -1 1 C-0.67 0.67 -0.34 0.34 0 0 Z " fill="#000000" transform="translate(517,294)"/>
<path d="" fill="#000000" transform="translate(0,0)"/>
<path d="" fill="#000000" transform="translate(0,0)"/>
<path d="M0 0 C3 1 3 1 3 1 Z " fill="#000000" transform="translate(785,233)"/>
<path d="" fill="#000000" transform="translate(0,0)"/>
<path d="" fill="#000000" transform="translate(0,0)"/>
<path d="M0 0 C3 1 3 1 3 1 Z " fill="#000000" transform="translate(95,20)"/>
<path d="M0 0 C2 1 2 1 2 1 Z " fill="#000000" transform="translate(738,425)"/>
<path d="M0 0 C2 1 2 1 2 1 Z " fill="#000000" transform="translate(880,423)"/>
<path d="" fill="#000000" transform="translate(0,0)"/>
<path d="" fill="#000000" transform="translate(0,0)"/>
<path d="M0 0 C2 1 2 1 2 1 Z " fill="#000000" transform="translate(880,407)"/>
<path d="" fill="#000000" transform="translate(0,0)"/>
<path d="M0 0 C2 1 2 1 2 1 Z " fill="#000000" transform="translate(880,399)"/>
<path d="M0 0 C2 1 2 1 2 1 Z " fill="#000000" transform="translate(880,383)"/>
<path d="M0 0 C2 1 2 1 2 1 Z " fill="#000000" transform="translate(880,375)"/>
<path d="M0 0 C2 1 2 1 2 1 Z " fill="#000000" transform="translate(880,367)"/>
<path d="M0 0 C2 1 2 1 2 1 Z " fill="#000000" transform="translate(880,359)"/>
<path d="M0 0 C2 1 2 1 2 1 Z " fill="#000000" transform="translate(880,351)"/>
<path d="M0 0 C2 1 2 1 2 1 Z " fill="#000000" transform="translate(195,347)"/>
<path d="M0 0 C2 1 2 1 2 1 Z " fill="#000000" transform="translate(880,343)"/>
<path d="" fill="#000000" transform="translate(0,0)"/>
<path d="" fill="#000000" transform="translate(0,0)"/>
<path d="M0 0 C2 1 2 1 2 1 Z " fill="#000000" transform="translate(880,335)"/>
<path d="M0 0 C2 1 2 1 2 1 Z " fill="#000000" transform="translate(303,328)"/>
<path d="M0 0 C2 1 2 1 2 1 Z " fill="#000000" transform="translate(880,327)"/>
<path d="M0 0 C2 1 2 1 2 1 Z " fill="#000000" transform="translate(787,327)"/>
<path d="M0 0 C2 1 2 1 2 1 Z " fill="#000000" transform="translate(906,323)"/>
<path d="M0 0 C2 1 2 1 2 1 Z " fill="#000000" transform="translate(833,323)"/>
<path d="" fill="#000000" transform="translate(0,0)"/>
<path d="M0 0 C2 1 2 1 2 1 Z " fill="#000000" transform="translate(880,319)"/>
<path d="" fill="#000000" transform="translate(0,0)"/>
<path d="" fill="#000000" transform="translate(0,0)"/>
<path d="" fill="#000000" transform="translate(0,0)"/>
<path d="M0 0 C2 1 2 1 2 1 Z " fill="#000000" transform="translate(880,303)"/>
<path d="" fill="#000000" transform="translate(0,0)"/>
<path d="" fill="#000000" transform="translate(0,0)"/>
<path d="" fill="#000000" transform="translate(0,0)"/>
<path d="" fill="#000000" transform="translate(0,0)"/>
<path d="" fill="#000000" transform="translate(0,0)"/>
<path d="" fill="#000000" transform="translate(0,0)"/>
<path d="" fill="#000000" transform="translate(0,0)"/>
<path d="M0 0 C2 1 2 1 2 1 Z " fill="#000000" transform="translate(1081,262)"/>
<path d="" fill="#000000" transform="translate(0,0)"/>
<path d="" fill="#000000" transform="translate(0,0)"/>
<path d="" fill="#000000" transform="translate(0,0)"/>
<path d="M0 0 C2 1 2 1 2 1 Z " fill="#000000" transform="translate(721,243)"/>
<path d="" fill="#000000" transform="translate(0,0)"/>
<path d="" fill="#000000" transform="translate(0,0)"/>
<path d="M0 0 C2 1 2 1 2 1 Z " fill="#000000" transform="translate(880,207)"/>
<path d="M0 0 C2 1 2 1 2 1 Z " fill="#000000" transform="translate(880,199)"/>
<path d="" fill="#000000" transform="translate(0,0)"/>
<path d="" fill="#000000" transform="translate(0,0)"/>
<path d="M0 0 C2 1 2 1 2 1 Z " fill="#000000" transform="translate(880,191)"/>
<path d="" fill="#000000" transform="translate(0,0)"/>
<path d="M0 0 C2 1 2 1 2 1 Z " fill="#000000" transform="translate(880,183)"/>
<path d="" fill="#000000" transform="translate(0,0)"/>
<path d="M0 0 C2 1 2 1 2 1 Z " fill="#000000" transform="translate(880,175)"/>
<path d="M0 0 C2 1 2 1 2 1 Z " fill="#000000" transform="translate(414,172)"/>
<path d="" fill="#000000" transform="translate(0,0)"/>
<path d="" fill="#000000" transform="translate(0,0)"/>
<path d="M0 0 C2 1 2 1 2 1 Z " fill="#000000" transform="translate(880,151)"/>
<path d="" fill="#000000" transform="translate(0,0)"/>
<path d="" fill="#000000" transform="translate(0,0)"/>
<path d="M0 0 C2 1 2 1 2 1 Z " fill="#000000" transform="translate(880,143)"/>
<path d="M0 0 C2 1 2 1 2 1 Z " fill="#000000" transform="translate(880,135)"/>
<path d="" fill="#000000" transform="translate(0,0)"/>
<path d="M0 0 C2 1 2 1 2 1 Z " fill="#000000" transform="translate(880,119)"/>
<path d="M0 0 C2 1 2 1 2 1 Z " fill="#000000" transform="translate(880,111)"/>
<path d="M0 0 C2 1 2 1 2 1 Z " fill="#000000" transform="translate(880,103)"/>
<path d="" fill="#000000" transform="translate(0,0)"/>
<path d="M0 0 C2 1 2 1 2 1 Z " fill="#000000" transform="translate(880,95)"/>
<path d="M0 0 C2 1 2 1 2 1 Z " fill="#000000" transform="translate(880,87)"/>
<path d="" fill="#000000" transform="translate(0,0)"/>
<path d="M0 0 C2 1 2 1 2 1 Z " fill="#000000" transform="translate(62,83)"/>
<path d="" fill="#000000" transform="translate(0,0)"/>
<path d="" fill="#000000" transform="translate(0,0)"/>
<path d="M0 0 C2 1 2 1 2 1 Z " fill="#000000" transform="translate(880,63)"/>
<path d="" fill="#000000" transform="translate(0,0)"/>
<path d="M0 0 C2 1 2 1 2 1 Z " fill="#000000" transform="translate(880,55)"/>
<path d="M0 0 C2 1 2 1 2 1 Z " fill="#000000" transform="translate(298,46)"/>
<path d="M0 0 C2 1 2 1 2 1 Z " fill="#000000" transform="translate(880,31)"/>
<path d="" fill="#000000" transform="translate(0,0)"/>
<path d="M0 0 C2 1 2 1 2 1 Z " fill="#000000" transform="translate(785,26)"/>
<path d="M0 0 C2 1 2 1 2 1 Z " fill="#000000" transform="translate(880,23)"/>
<path d="" fill="#000000" transform="translate(0,0)"/>
<path d="" fill="#000000" transform="translate(0,0)"/>
<path d="M0 0 C2 1 2 1 2 1 Z " fill="#000000" transform="translate(880,15)"/>
<path d="M0 0 C2 1 2 1 2 1 Z " fill="#000000" transform="translate(880,7)"/>
<path d="" fill="#000000" transform="translate(0,0)"/>
<path d="" fill="#000000" transform="translate(0,0)"/>
<path d="" fill="#000000" transform="translate(0,0)"/>
<path d="" fill="#000000" transform="translate(0,0)"/>
<path d="" fill="#000000" transform="translate(0,0)"/>
<path d="" fill="#000000" transform="translate(0,0)"/>
<path d="" fill="#000000" transform="translate(0,0)"/>
<path d="" fill="#000000" transform="translate(0,0)"/>
<path d="" fill="#000000" transform="translate(0,0)"/>
<path d="" fill="#000000" transform="translate(0,0)"/>
<path d="" fill="#000000" transform="translate(0,0)"/>
<path d="" fill="#000000" transform="translate(0,0)"/>
<path d="" fill="#000000" transform="translate(0,0)"/>
<path d="" fill="#000000" transform="translate(0,0)"/>
<path d="" fill="#000000" transform="translate(0,0)"/>
<path d="" fill="#000000" transform="translate(0,0)"/>
<path d="" fill="#000000" transform="translate(0,0)"/>
<path d="" fill="#000000" transform="translate(0,0)"/>
<path d="" fill="#000000" transform="translate(0,0)"/>
<path d="" fill="#000000" transform="translate(0,0)"/>
<path d="" fill="#000000" transform="translate(0,0)"/>
<path d="" fill="#000000" transform="translate(0,0)"/>
<path d="" fill="#000000" transform="translate(0,0)"/>
<path d="" fill="#000000" transform="translate(0,0)"/>
<path d="" fill="#000000" transform="translate(0,0)"/>
<path d="" fill="#000000" transform="translate(0,0)"/>
<path d="" fill="#000000" transform="translate(0,0)"/>
<path d="" fill="#000000" transform="translate(0,0)"/>
<path d="" fill="#000000" transform="translate(0,0)"/>
<path d="" fill="#000000" transform="translate(0,0)"/>
<path d="" fill="#000000" transform="translate(0,0)"/>
<path d="" fill="#000000" transform="translate(0,0)"/>
<path d="" fill="#000000" transform="translate(0,0)"/>
<path d="" fill="#000000" transform="translate(0,0)"/>
<path d="" fill="#000000" transform="translate(0,0)"/>
<path d="" fill="#000000" transform="translate(0,0)"/>
<path d="" fill="#000000" transform="translate(0,0)"/>
<path d="" fill="#000000" transform="translate(0,0)"/>
<path d="" fill="#000000" transform="translate(0,0)"/>
<path d="" fill="#000000" transform="translate(0,0)"/>
<path d="" fill="#000000" transform="translate(0,0)"/>
<path d="" fill="#000000" transform="translate(0,0)"/>
<path d="" fill="#000000" transform="translate(0,0)"/>
<path d="" fill="#000000" transform="translate(0,0)"/>
<path d="" fill="#000000" transform="translate(0,0)"/>
<path d="" fill="#000000" transform="translate(0,0)"/>
<path d="" fill="#000000" transform="translate(0,0)"/>
<path d="" fill="#000000" transform="translate(0,0)"/>
<path d="" fill="#000000" transform="translate(0,0)"/>
<path d="" fill="#000000" transform="translate(0,0)"/>
<path d="" fill="#000000" transform="translate(0,0)"/>
<path d="" fill="#000000" transform="translate(0,0)"/>
<path d="" fill="#000000" transform="translate(0,0)"/>
<path d="" fill="#000000" transform="translate(0,0)"/>
<path d="" fill="#000000" transform="translate(0,0)"/>
<path d="" fill="#000000" transform="translate(0,0)"/>
<path d="" fill="#000000" transform="translate(0,0)"/>
<path d="" fill="#000000" transform="translate(0,0)"/>
<path d="" fill="#000000" transform="translate(0,0)"/>
<path d="" fill="#000000" transform="translate(0,0)"/>
<path d="" fill="#000000" transform="translate(0,0)"/>
<path d="" fill="#000000" transform="translate(0,0)"/>
<path d="" fill="#000000" transform="translate(0,0)"/>
<path d="" fill="#000000" transform="translate(0,0)"/>
<path d="" fill="#000000" transform="translate(0,0)"/>
<path d="" fill="#000000" transform="translate(0,0)"/>
<path d="" fill="#000000" transform="translate(0,0)"/>
<path d="" fill="#000000" transform="translate(0,0)"/>
<path d="" fill="#000000" transform="translate(0,0)"/>
<path d="" fill="#000000" transform="translate(0,0)"/>
<path d="" fill="#000000" transform="translate(0,0)"/>
<path d="" fill="#000000" transform="translate(0,0)"/>
<path d="" fill="#000000" transform="translate(0,0)"/>
<path d="" fill="#000000" transform="translate(0,0)"/>
<path d="" fill="#000000" transform="translate(0,0)"/>
<path d="" fill="#000000" transform="translate(0,0)"/>
<path d="" fill="#000000" transform="translate(0,0)"/>
<path d="" fill="#000000" transform="translate(0,0)"/>
<path d="" fill="#000000" transform="translate(0,0)"/>
<path d="" fill="#000000" transform="translate(0,0)"/>
<path d="" fill="#000000" transform="translate(0,0)"/>
<path d="" fill="#000000" transform="translate(0,0)"/>
<path d="" fill="#000000" transform="translate(0,0)"/>
<path d="" fill="#000000" transform="translate(0,0)"/>
<path d="" fill="#000000" transform="translate(0,0)"/>
<path d="" fill="#000000" transform="translate(0,0)"/>
<path d="" fill="#000000" transform="translate(0,0)"/>
<path d="" fill="#000000" transform="translate(0,0)"/>
<path d="" fill="#000000" transform="translate(0,0)"/>
<path d="" fill="#000000" transform="translate(0,0)"/>
<path d="" fill="#000000" transform="translate(0,0)"/>
<path d="" fill="#000000" transform="translate(0,0)"/>
<path d="" fill="#000000" transform="translate(0,0)"/>
<path d="" fill="#000000" transform="translate(0,0)"/>
<path d="" fill="#000000" transform="translate(0,0)"/>
<path d="" fill="#000000" transform="translate(0,0)"/>
<path d="" fill="#000000" transform="translate(0,0)"/>
<path d="" fill="#000000" transform="translate(0,0)"/>
<path d="" fill="#000000" transform="translate(0,0)"/>
<path d="" fill="#000000" transform="translate(0,0)"/>
<path d="" fill="#000000" transform="translate(0,0)"/>
<path d="" fill="#000000" transform="translate(0,0)"/>
<path d="" fill="#000000" transform="translate(0,0)"/>
<path d="" fill="#000000" transform="translate(0,0)"/>
<path d="" fill="#000000" transform="translate(0,0)"/>
<path d="" fill="#000000" transform="translate(0,0)"/>
<path d="" fill="#000000" transform="translate(0,0)"/>
<path d="" fill="#000000" transform="translate(0,0)"/>
<path d="" fill="#000000" transform="translate(0,0)"/>
<path d="" fill="#000000" transform="translate(0,0)"/>
<path d="" fill="#000000" transform="translate(0,0)"/>
<path d="" fill="#000000" transform="translate(0,0)"/>
<path d="" fill="#000000" transform="translate(0,0)"/>
<path d="" fill="#000000" transform="translate(0,0)"/>
<path d="" fill="#000000" transform="translate(0,0)"/>
<path d="" fill="#000000" transform="translate(0,0)"/>
<path d="" fill="#000000" transform="translate(0,0)"/>
<path d="" fill="#000000" transform="translate(0,0)"/>
<path d="" fill="#000000" transform="translate(0,0)"/>
<path d="" fill="#000000" transform="translate(0,0)"/>
<path d="" fill="#000000" transform="translate(0,0)"/>
<path d="" fill="#000000" transform="translate(0,0)"/>
<path d="" fill="#000000" transform="translate(0,0)"/>
<path d="" fill="#000000" transform="translate(0,0)"/>
<path d="" fill="#000000" transform="translate(0,0)"/>
<path d="" fill="#000000" transform="translate(0,0)"/>
<path d="" fill="#000000" transform="translate(0,0)"/>
<path d="" fill="#000000" transform="translate(0,0)"/>
<path d="" fill="#000000" transform="translate(0,0)"/>
<path d="" fill="#000000" transform="translate(0,0)"/>
<path d="" fill="#000000" transform="translate(0,0)"/>
<path d="" fill="#000000" transform="translate(0,0)"/>
<path d="" fill="#000000" transform="translate(0,0)"/>
<path d="" fill="#000000" transform="translate(0,0)"/>
<path d="" fill="#000000" transform="translate(0,0)"/>
<path d="" fill="#000000" transform="translate(0,0)"/>
<path d="" fill="#000000" transform="translate(0,0)"/>
<path d="" fill="#000000" transform="translate(0,0)"/>
<path d="" fill="#000000" transform="translate(0,0)"/>
<path d="" fill="#000000" transform="translate(0,0)"/>
<path d="" fill="#000000" transform="translate(0,0)"/>
<path d="" fill="#000000" transform="translate(0,0)"/>
<path d="" fill="#000000" transform="translate(0,0)"/>
<path d="" fill="#000000" transform="translate(0,0)"/>
<path d="" fill="#000000" transform="translate(0,0)"/>
<path d="" fill="#000000" transform="translate(0,0)"/>
<path d="" fill="#000000" transform="translate(0,0)"/>
<path d="" fill="#000000" transform="translate(0,0)"/>
<path d="" fill="#000000" transform="translate(0,0)"/>
<path d="" fill="#000000" transform="translate(0,0)"/>
<path d="" fill="#000000" transform="translate(0,0)"/>
<path d="" fill="#000000" transform="translate(0,0)"/>
<path d="" fill="#000000" transform="translate(0,0)"/>
<path d="" fill="#000000" transform="translate(0,0)"/>
<path d="" fill="#000000" transform="translate(0,0)"/>
<path d="" fill="#000000" transform="translate(0,0)"/>
<path d="" fill="#000000" transform="translate(0,0)"/>
<path d="" fill="#000000" transform="translate(0,0)"/>
<path d="" fill="#000000" transform="translate(0,0)"/>
<path d="" fill="#000000" transform="translate(0,0)"/>
<path d="" fill="#000000" transform="translate(0,0)"/>
<path d="" fill="#000000" transform="translate(0,0)"/>
<path d="" fill="#000000" transform="translate(0,0)"/>
<path d="" fill="#000000" transform="translate(0,0)"/>
<path d="" fill="#000000" transform="translate(0,0)"/>
<path d="" fill="#000000" transform="translate(0,0)"/>
<path d="" fill="#000000" transform="translate(0,0)"/>
<path d="" fill="#000000" transform="translate(0,0)"/>
<path d="" fill="#000000" transform="translate(0,0)"/>
<path d="" fill="#000000" transform="translate(0,0)"/>
<path d="" fill="#000000" transform="translate(0,0)"/>
<path d="" fill="#000000" transform="translate(0,0)"/>
<path d="" fill="#000000" transform="translate(0,0)"/>
<path d="" fill="#000000" transform="translate(0,0)"/>
<path d="" fill="#000000" transform="translate(0,0)"/>
<path d="" fill="#000000" transform="translate(0,0)"/>
<path d="" fill="#000000" transform="translate(0,0)"/>
<path d="" fill="#000000" transform="translate(0,0)"/>
<path d="" fill="#000000" transform="translate(0,0)"/>
<path d="" fill="#000000" transform="translate(0,0)"/>
<path d="" fill="#000000" transform="translate(0,0)"/>
<path d="" fill="#000000" transform="translate(0,0)"/>
<path d="" fill="#000000" transform="translate(0,0)"/>
<path d="" fill="#000000" transform="translate(0,0)"/>
<path d="" fill="#000000" transform="translate(0,0)"/>
<path d="" fill="#000000" transform="translate(0,0)"/>
<path d="" fill="#000000" transform="translate(0,0)"/>
<path d="" fill="#000000" transform="translate(0,0)"/>
<path d="" fill="#000000" transform="translate(0,0)"/>
<path d="" fill="#000000" transform="translate(0,0)"/>
<path d="" fill="#000000" transform="translate(0,0)"/>
<path d="" fill="#000000" transform="translate(0,0)"/>
<path d="" fill="#000000" transform="translate(0,0)"/>
<path d="" fill="#000000" transform="translate(0,0)"/>
<path d="" fill="#000000" transform="translate(0,0)"/>
<path d="" fill="#000000" transform="translate(0,0)"/>
<path d="" fill="#000000" transform="translate(0,0)"/>
<path d="" fill="#000000" transform="translate(0,0)"/>
<path d="" fill="#000000" transform="translate(0,0)"/>
<path d="" fill="#000000" transform="translate(0,0)"/>
<path d="" fill="#000000" transform="translate(0,0)"/>
<path d="" fill="#000000" transform="translate(0,0)"/>
<path d="" fill="#000000" transform="translate(0,0)"/>
<path d="" fill="#000000" transform="translate(0,0)"/>
<path d="" fill="#000000" transform="translate(0,0)"/>
<path d="" fill="#000000" transform="translate(0,0)"/>
<path d="" fill="#000000" transform="translate(0,0)"/>
<path d="" fill="#000000" transform="translate(0,0)"/>
<path d="" fill="#000000" transform="translate(0,0)"/>
<path d="" fill="#000000" transform="translate(0,0)"/>
<path d="" fill="#000000" transform="translate(0,0)"/>
<path d="" fill="#000000" transform="translate(0,0)"/>
<path d="" fill="#000000" transform="translate(0,0)"/>
<path d="" fill="#000000" transform="translate(0,0)"/>
<path d="" fill="#000000" transform="translate(0,0)"/>
<path d="" fill="#000000" transform="translate(0,0)"/>
<path d="" fill="#000000" transform="translate(0,0)"/>
<path d="" fill="#000000" transform="translate(0,0)"/>
<path d="" fill="#000000" transform="translate(0,0)"/>
<path d="" fill="#000000" transform="translate(0,0)"/>
<path d="" fill="#000000" transform="translate(0,0)"/>
<path d="" fill="#000000" transform="translate(0,0)"/>
<path d="" fill="#000000" transform="translate(0,0)"/>
<path d="" fill="#000000" transform="translate(0,0)"/>
<path d="" fill="#000000" transform="translate(0,0)"/>
<path d="" fill="#000000" transform="translate(0,0)"/>
<path d="" fill="#000000" transform="translate(0,0)"/>
<path d="" fill="#000000" transform="translate(0,0)"/>
<path d="" fill="#000000" transform="translate(0,0)"/>
<path d="" fill="#000000" transform="translate(0,0)"/>
<path d="" fill="#000000" transform="translate(0,0)"/>
<path d="" fill="#000000" transform="translate(0,0)"/>
<path d="" fill="#000000" transform="translate(0,0)"/>
<path d="" fill="#000000" transform="translate(0,0)"/>
<path d="" fill="#000000" transform="translate(0,0)"/>
<path d="" fill="#000000" transform="translate(0,0)"/>
<path d="" fill="#000000" transform="translate(0,0)"/>
<path d="" fill="#000000" transform="translate(0,0)"/>
<path d="" fill="#000000" transform="translate(0,0)"/>
<path d="" fill="#000000" transform="translate(0,0)"/>
<path d="" fill="#000000" transform="translate(0,0)"/>
<path d="" fill="#000000" transform="translate(0,0)"/>
<path d="" fill="#000000" transform="translate(0,0)"/>
<path d="" fill="#000000" transform="translate(0,0)"/>
<path d="" fill="#000000" transform="translate(0,0)"/>
<path d="" fill="#000000" transform="translate(0,0)"/>
<path d="" fill="#000000" transform="translate(0,0)"/>
<path d="" fill="#000000" transform="translate(0,0)"/>
<path d="" fill="#000000" transform="translate(0,0)"/>
<path d="" fill="#000000" transform="translate(0,0)"/>
<path d="" fill="#000000" transform="translate(0,0)"/>
<path d="" fill="#000000" transform="translate(0,0)"/>
<path d="" fill="#000000" transform="translate(0,0)"/>
<path d="" fill="#000000" transform="translate(0,0)"/>
<path d="" fill="#000000" transform="translate(0,0)"/>
<path d="" fill="#000000" transform="translate(0,0)"/>
<path d="" fill="#000000" transform="translate(0,0)"/>
<path d="" fill="#000000" transform="translate(0,0)"/>
<path d="" fill="#000000" transform="translate(0,0)"/>
<path d="" fill="#000000" transform="translate(0,0)"/>
<path d="" fill="#000000" transform="translate(0,0)"/>
<path d="" fill="#000000" transform="translate(0,0)"/>
<path d="" fill="#000000" transform="translate(0,0)"/>
<path d="" fill="#000000" transform="translate(0,0)"/>
<path d="" fill="#000000" transform="translate(0,0)"/>
<path d="" fill="#000000" transform="translate(0,0)"/>
<path d="" fill="#000000" transform="translate(0,0)"/>
<path d="" fill="#000000" transform="translate(0,0)"/>
<path d="" fill="#000000" transform="translate(0,0)"/>
<path d="" fill="#000000" transform="translate(0,0)"/>
<path d="" fill="#000000" transform="translate(0,0)"/>
<path d="" fill="#000000" transform="translate(0,0)"/>
<path d="" fill="#000000" transform="translate(0,0)"/>
<path d="" fill="#000000" transform="translate(0,0)"/>
<path d="" fill="#000000" transform="translate(0,0)"/>
<path d="" fill="#000000" transform="translate(0,0)"/>
<path d="" fill="#000000" transform="translate(0,0)"/>
<path d="" fill="#000000" transform="translate(0,0)"/>
<path d="" fill="#000000" transform="translate(0,0)"/>
<path d="" fill="#000000" transform="translate(0,0)"/>
<path d="" fill="#000000" transform="translate(0,0)"/>
<path d="" fill="#000000" transform="translate(0,0)"/>
<path d="" fill="#000000" transform="translate(0,0)"/>
<path d="" fill="#000000" transform="translate(0,0)"/>
<path d="" fill="#000000" transform="translate(0,0)"/>
<path d="" fill="#000000" transform="translate(0,0)"/>
<path d="" fill="#000000" transform="translate(0,0)"/>
<path d="" fill="#000000" transform="translate(0,0)"/>
<path d="" fill="#000000" transform="translate(0,0)"/>
<path d="" fill="#000000" transform="translate(0,0)"/>
<path d="" fill="#000000" transform="translate(0,0)"/>
<path d="" fill="#000000" transform="translate(0,0)"/>
<path d="" fill="#000000" transform="translate(0,0)"/>
<path d="" fill="#000000" transform="translate(0,0)"/>
<path d="" fill="#000000" transform="translate(0,0)"/>
<path d="" fill="#000000" transform="translate(0,0)"/>
<path d="" fill="#000000" transform="translate(0,0)"/>
<path d="" fill="#000000" transform="translate(0,0)"/>
<path d="" fill="#000000" transform="translate(0,0)"/>
<path d="" fill="#000000" transform="translate(0,0)"/>
<path d="" fill="#000000" transform="translate(0,0)"/>
<path d="" fill="#000000" transform="translate(0,0)"/>
<path d="" fill="#000000" transform="translate(0,0)"/>
<path d="" fill="#000000" transform="translate(0,0)"/>
<path d="" fill="#000000" transform="translate(0,0)"/>
<path d="" fill="#000000" transform="translate(0,0)"/>
<path d="" fill="#000000" transform="translate(0,0)"/>
<path d="" fill="#000000" transform="translate(0,0)"/>
<path d="" fill="#000000" transform="translate(0,0)"/>
<path d="" fill="#000000" transform="translate(0,0)"/>
<path d="" fill="#000000" transform="translate(0,0)"/>
<path d="" fill="#000000" transform="translate(0,0)"/>
<path d="" fill="#000000" transform="translate(0,0)"/>
<path d="" fill="#000000" transform="translate(0,0)"/>
<path d="" fill="#000000" transform="translate(0,0)"/>
<path d="" fill="#000000" transform="translate(0,0)"/>
<path d="" fill="#000000" transform="translate(0,0)"/>
<path d="" fill="#000000" transform="translate(0,0)"/>
<path d="" fill="#000000" transform="translate(0,0)"/>
<path d="" fill="#000000" transform="translate(0,0)"/>
<path d="" fill="#000000" transform="translate(0,0)"/>
<path d="" fill="#000000" transform="translate(0,0)"/>
<path d="" fill="#000000" transform="translate(0,0)"/>
<path d="" fill="#000000" transform="translate(0,0)"/>
<path d="" fill="#000000" transform="translate(0,0)"/>
<path d="" fill="#000000" transform="translate(0,0)"/>
<path d="" fill="#000000" transform="translate(0,0)"/>
<path d="" fill="#000000" transform="translate(0,0)"/>
<path d="" fill="#000000" transform="translate(0,0)"/>
<path d="" fill="#000000" transform="translate(0,0)"/>
<path d="" fill="#000000" transform="translate(0,0)"/>
<path d="" fill="#000000" transform="translate(0,0)"/>
<path d="" fill="#000000" transform="translate(0,0)"/>
<path d="" fill="#000000" transform="translate(0,0)"/>
<path d="" fill="#000000" transform="translate(0,0)"/>
<path d="" fill="#000000" transform="translate(0,0)"/>
<path d="" fill="#000000" transform="translate(0,0)"/>
<path d="" fill="#000000" transform="translate(0,0)"/>
<path d="" fill="#000000" transform="translate(0,0)"/>
<path d="" fill="#000000" transform="translate(0,0)"/>
<path d="" fill="#000000" transform="translate(0,0)"/>
<path d="" fill="#000000" transform="translate(0,0)"/>
<path d="" fill="#000000" transform="translate(0,0)"/>
<path d="" fill="#000000" transform="translate(0,0)"/>
<path d="" fill="#000000" transform="translate(0,0)"/>
<path d="" fill="#000000" transform="translate(0,0)"/>
<path d="" fill="#000000" transform="translate(0,0)"/>
<path d="" fill="#000000" transform="translate(0,0)"/>
<path d="" fill="#000000" transform="translate(0,0)"/>
<path d="" fill="#000000" transform="translate(0,0)"/>
<path d="" fill="#000000" transform="translate(0,0)"/>
<path d="" fill="#000000" transform="translate(0,0)"/>
<path d="" fill="#000000" transform="translate(0,0)"/>
<path d="" fill="#000000" transform="translate(0,0)"/>
<path d="" fill="#000000" transform="translate(0,0)"/>
<path d="" fill="#000000" transform="translate(0,0)"/>
<path d="" fill="#000000" transform="translate(0,0)"/>
<path d="" fill="#000000" transform="translate(0,0)"/>
<path d="" fill="#000000" transform="translate(0,0)"/>
<path d="" fill="#000000" transform="translate(0,0)"/>
<path d="" fill="#000000" transform="translate(0,0)"/>
<path d="" fill="#000000" transform="translate(0,0)"/>
<path d="" fill="#000000" transform="translate(0,0)"/>
<path d="" fill="#000000" transform="translate(0,0)"/>
<path d="" fill="#000000" transform="translate(0,0)"/>
<path d="" fill="#000000" transform="translate(0,0)"/>
<path d="" fill="#000000" transform="translate(0,0)"/>
<path d="" fill="#000000" transform="translate(0,0)"/>
<path d="" fill="#000000" transform="translate(0,0)"/>
<path d="" fill="#000000" transform="translate(0,0)"/>
<path d="" fill="#000000" transform="translate(0,0)"/>
<path d="" fill="#000000" transform="translate(0,0)"/>
<path d="" fill="#000000" transform="translate(0,0)"/>
<path d="" fill="#000000" transform="translate(0,0)"/>
<path d="" fill="#000000" transform="translate(0,0)"/>
<path d="" fill="#000000" transform="translate(0,0)"/>
<path d="" fill="#000000" transform="translate(0,0)"/>
<path d="" fill="#000000" transform="translate(0,0)"/>
<path d="" fill="#000000" transform="translate(0,0)"/>
<path d="" fill="#000000" transform="translate(0,0)"/>
<path d="" fill="#000000" transform="translate(0,0)"/>
<path d="" fill="#000000" transform="translate(0,0)"/>
<path d="" fill="#000000" transform="translate(0,0)"/>
<path d="" fill="#000000" transform="translate(0,0)"/>
<path d="" fill="#000000" transform="translate(0,0)"/>
<path d="" fill="#000000" transform="translate(0,0)"/>
<path d="" fill="#000000" transform="translate(0,0)"/>
<path d="" fill="#000000" transform="translate(0,0)"/>
<path d="" fill="#000000" transform="translate(0,0)"/>
<path d="" fill="#000000" transform="translate(0,0)"/>
<path d="" fill="#000000" transform="translate(0,0)"/>
<path d="" fill="#000000" transform="translate(0,0)"/>
<path d="" fill="#000000" transform="translate(0,0)"/>
<path d="" fill="#000000" transform="translate(0,0)"/>
<path d="" fill="#000000" transform="translate(0,0)"/>
<path d="" fill="#000000" transform="translate(0,0)"/>
<path d="" fill="#000000" transform="translate(0,0)"/>
<path d="" fill="#000000" transform="translate(0,0)"/>
<path d="" fill="#000000" transform="translate(0,0)"/>
<path d="" fill="#000000" transform="translate(0,0)"/>
<path d="" fill="#000000" transform="translate(0,0)"/>
<path d="" fill="#000000" transform="translate(0,0)"/>
<path d="" fill="#000000" transform="translate(0,0)"/>
<path d="" fill="#000000" transform="translate(0,0)"/>
<path d="" fill="#000000" transform="translate(0,0)"/>
<path d="" fill="#000000" transform="translate(0,0)"/>
<path d="" fill="#000000" transform="translate(0,0)"/>
<path d="" fill="#000000" transform="translate(0,0)"/>
<path d="" fill="#000000" transform="translate(0,0)"/>
<path d="" fill="#000000" transform="translate(0,0)"/>
<path d="" fill="#000000" transform="translate(0,0)"/>
<path d="" fill="#000000" transform="translate(0,0)"/>
<path d="" fill="#000000" transform="translate(0,0)"/>
<path d="" fill="#000000" transform="translate(0,0)"/>
<path d="" fill="#000000" transform="translate(0,0)"/>
<path d="" fill="#000000" transform="translate(0,0)"/>
<path d="" fill="#000000" transform="translate(0,0)"/>
<path d="" fill="#000000" transform="translate(0,0)"/>
<path d="" fill="#000000" transform="translate(0,0)"/>
<path d="" fill="#000000" transform="translate(0,0)"/>
<path d="" fill="#000000" transform="translate(0,0)"/>
<path d="" fill="#000000" transform="translate(0,0)"/>
<path d="" fill="#000000" transform="translate(0,0)"/>
<path d="" fill="#000000" transform="translate(0,0)"/>
<path d="" fill="#000000" transform="translate(0,0)"/>
<path d="" fill="#000000" transform="translate(0,0)"/>
<path d="" fill="#000000" transform="translate(0,0)"/>
<path d="" fill="#000000" transform="translate(0,0)"/>
<path d="" fill="#000000" transform="translate(0,0)"/>
<path d="" fill="#000000" transform="translate(0,0)"/>
<path d="" fill="#000000" transform="translate(0,0)"/>
<path d="" fill="#000000" transform="translate(0,0)"/>
<path d="" fill="#000000" transform="translate(0,0)"/>
<path d="" fill="#000000" transform="translate(0,0)"/>
<path d="" fill="#000000" transform="translate(0,0)"/>
<path d="" fill="#000000" transform="translate(0,0)"/>
<path d="" fill="#000000" transform="translate(0,0)"/>
<path d="" fill="#000000" transform="translate(0,0)"/>
<path d="" fill="#000000" transform="translate(0,0)"/>
<path d="" fill="#000000" transform="translate(0,0)"/>
<path d="" fill="#000000" transform="translate(0,0)"/>
<path d="" fill="#000000" transform="translate(0,0)"/>
<path d="" fill="#000000" transform="translate(0,0)"/>
<path d="" fill="#000000" transform="translate(0,0)"/>
<path d="" fill="#000000" transform="translate(0,0)"/>
<path d="" fill="#000000" transform="translate(0,0)"/>
<path d="" fill="#000000" transform="translate(0,0)"/>
<path d="" fill="#000000" transform="translate(0,0)"/>
<path d="" fill="#000000" transform="translate(0,0)"/>
<path d="" fill="#000000" transform="translate(0,0)"/>
<path d="" fill="#000000" transform="translate(0,0)"/>
<path d="" fill="#000000" transform="translate(0,0)"/>
<path d="" fill="#000000" transform="translate(0,0)"/>
<path d="" fill="#000000" transform="translate(0,0)"/>
<path d="" fill="#000000" transform="translate(0,0)"/>
<path d="" fill="#000000" transform="translate(0,0)"/>
<path d="" fill="#000000" transform="translate(0,0)"/>
<path d="" fill="#000000" transform="translate(0,0)"/>
<path d="" fill="#000000" transform="translate(0,0)"/>
<path d="" fill="#000000" transform="translate(0,0)"/>
<path d="" fill="#000000" transform="translate(0,0)"/>
<path d="" fill="#000000" transform="translate(0,0)"/>
<path d="" fill="#000000" transform="translate(0,0)"/>
<path d="" fill="#000000" transform="translate(0,0)"/>
<path d="" fill="#000000" transform="translate(0,0)"/>
<path d="" fill="#000000" transform="translate(0,0)"/>
<path d="" fill="#000000" transform="translate(0,0)"/>
<path d="" fill="#000000" transform="translate(0,0)"/>
<path d="" fill="#000000" transform="translate(0,0)"/>
<path d="" fill="#000000" transform="translate(0,0)"/>
<path d="" fill="#000000" transform="translate(0,0)"/>
<path d="" fill="#000000" transform="translate(0,0)"/>
<path d="" fill="#000000" transform="translate(0,0)"/>
<path d="" fill="#000000" transform="translate(0,0)"/>
<path d="" fill="#000000" transform="translate(0,0)"/>
<path d="" fill="#000000" transform="translate(0,0)"/>
<path d="" fill="#000000" transform="translate(0,0)"/>
<path d="" fill="#000000" transform="translate(0,0)"/>
<path d="" fill="#000000" transform="translate(0,0)"/>
<path d="" fill="#000000" transform="translate(0,0)"/>
<path d="" fill="#000000" transform="translate(0,0)"/>
<path d="" fill="#000000" transform="translate(0,0)"/>
<path d="" fill="#000000" transform="translate(0,0)"/>
<path d="" fill="#000000" transform="translate(0,0)"/>
<path d="" fill="#000000" transform="translate(0,0)"/>
<path d="" fill="#000000" transform="translate(0,0)"/>
<path d="" fill="#000000" transform="translate(0,0)"/>
<path d="" fill="#000000" transform="translate(0,0)"/>
<path d="" fill="#000000" transform="translate(0,0)"/>
<path d="" fill="#000000" transform="translate(0,0)"/>
<path d="" fill="#000000" transform="translate(0,0)"/>
<path d="" fill="#000000" transform="translate(0,0)"/>
<path d="" fill="#000000" transform="translate(0,0)"/>
<path d="" fill="#000000" transform="translate(0,0)"/>
<path d="" fill="#000000" transform="translate(0,0)"/>
<path d="" fill="#000000" transform="translate(0,0)"/>
<path d="" fill="#000000" transform="translate(0,0)"/>
<path d="" fill="#000000" transform="translate(0,0)"/>
<path d="" fill="#000000" transform="translate(0,0)"/>
<path d="" fill="#000000" transform="translate(0,0)"/>
<path d="" fill="#000000" transform="translate(0,0)"/>
<path d="" fill="#000000" transform="translate(0,0)"/>
<path d="" fill="#000000" transform="translate(0,0)"/>
<path d="" fill="#000000" transform="translate(0,0)"/>
<path d="" fill="#000000" transform="translate(0,0)"/>
<path d="" fill="#000000" transform="translate(0,0)"/>
<path d="" fill="#000000" transform="translate(0,0)"/>
<path d="" fill="#000000" transform="translate(0,0)"/>
<path d="" fill="#000000" transform="translate(0,0)"/>
<path d="" fill="#000000" transform="translate(0,0)"/>
<path d="" fill="#000000" transform="translate(0,0)"/>
<path d="" fill="#000000" transform="translate(0,0)"/>
<path d="" fill="#000000" transform="translate(0,0)"/>
<path d="" fill="#000000" transform="translate(0,0)"/>
<path d="" fill="#000000" transform="translate(0,0)"/>
<path d="" fill="#000000" transform="translate(0,0)"/>
<path d="" fill="#000000" transform="translate(0,0)"/>
<path d="" fill="#000000" transform="translate(0,0)"/>
<path d="" fill="#000000" transform="translate(0,0)"/>
<path d="" fill="#000000" transform="translate(0,0)"/>
<path d="" fill="#000000" transform="translate(0,0)"/>
<path d="" fill="#000000" transform="translate(0,0)"/>
<path d="" fill="#000000" transform="translate(0,0)"/>
<path d="" fill="#000000" transform="translate(0,0)"/>
<path d="" fill="#000000" transform="translate(0,0)"/>
<path d="" fill="#000000" transform="translate(0,0)"/>
<path d="" fill="#000000" transform="translate(0,0)"/>
<path d="" fill="#000000" transform="translate(0,0)"/>
<path d="" fill="#000000" transform="translate(0,0)"/>
<path d="" fill="#000000" transform="translate(0,0)"/>
<path d="" fill="#000000" transform="translate(0,0)"/>
<path d="" fill="#000000" transform="translate(0,0)"/>
<path d="" fill="#000000" transform="translate(0,0)"/>
<path d="" fill="#000000" transform="translate(0,0)"/>
<path d="" fill="#000000" transform="translate(0,0)"/>
<path d="" fill="#000000" transform="translate(0,0)"/>
<path d="" fill="#000000" transform="translate(0,0)"/>
<path d="" fill="#000000" transform="translate(0,0)"/>
<path d="" fill="#000000" transform="translate(0,0)"/>
<path d="" fill="#000000" transform="translate(0,0)"/>
<path d="" fill="#000000" transform="translate(0,0)"/>
<path d="" fill="#000000" transform="translate(0,0)"/>
<path d="" fill="#000000" transform="translate(0,0)"/>
<path d="" fill="#000000" transform="translate(0,0)"/>
<path d="" fill="#000000" transform="translate(0,0)"/>
<path d="" fill="#000000" transform="translate(0,0)"/>
<path d="" fill="#000000" transform="translate(0,0)"/>
<path d="" fill="#000000" transform="translate(0,0)"/>
<path d="" fill="#000000" transform="translate(0,0)"/>
<path d="" fill="#000000" transform="translate(0,0)"/>
<path d="" fill="#000000" transform="translate(0,0)"/>
<path d="" fill="#000000" transform="translate(0,0)"/>
<path d="" fill="#000000" transform="translate(0,0)"/>
<path d="" fill="#000000" transform="translate(0,0)"/>
<path d="" fill="#000000" transform="translate(0,0)"/>
<path d="" fill="#000000" transform="translate(0,0)"/>
<path d="" fill="#000000" transform="translate(0,0)"/>
<path d="" fill="#000000" transform="translate(0,0)"/>
<path d="" fill="#000000" transform="translate(0,0)"/>
<path d="" fill="#000000" transform="translate(0,0)"/>
<path d="" fill="#000000" transform="translate(0,0)"/>
<path d="" fill="#000000" transform="translate(0,0)"/>
<path d="" fill="#000000" transform="translate(0,0)"/>
<path d="" fill="#000000" transform="translate(0,0)"/>
<path d="" fill="#000000" transform="translate(0,0)"/>
<path d="" fill="#000000" transform="translate(0,0)"/>
<path d="" fill="#000000" transform="translate(0,0)"/>
<path d="" fill="#000000" transform="translate(0,0)"/>
<path d="" fill="#000000" transform="translate(0,0)"/>
<path d="" fill="#000000" transform="translate(0,0)"/>
<path d="" fill="#000000" transform="translate(0,0)"/>
<path d="" fill="#000000" transform="translate(0,0)"/>
<path d="" fill="#000000" transform="translate(0,0)"/>
<path d="" fill="#000000" transform="translate(0,0)"/>
<path d="" fill="#000000" transform="translate(0,0)"/>
<path d="" fill="#000000" transform="translate(0,0)"/>
<path d="" fill="#000000" transform="translate(0,0)"/>
<path d="" fill="#000000" transform="translate(0,0)"/>
<path d="" fill="#000000" transform="translate(0,0)"/>
<path d="" fill="#000000" transform="translate(0,0)"/>
<path d="" fill="#000000" transform="translate(0,0)"/>
<path d="" fill="#000000" transform="translate(0,0)"/>
<path d="" fill="#000000" transform="translate(0,0)"/>
<path d="" fill="#000000" transform="translate(0,0)"/>
<path d="" fill="#000000" transform="translate(0,0)"/>
<path d="" fill="#000000" transform="translate(0,0)"/>
<path d="" fill="#000000" transform="translate(0,0)"/>
<path d="" fill="#000000" transform="translate(0,0)"/>
<path d="" fill="#000000" transform="translate(0,0)"/>
<path d="" fill="#000000" transform="translate(0,0)"/>
<path d="" fill="#000000" transform="translate(0,0)"/>
<path d="" fill="#000000" transform="translate(0,0)"/>
<path d="" fill="#000000" transform="translate(0,0)"/>
<path d="" fill="#000000" transform="translate(0,0)"/>
<path d="" fill="#000000" transform="translate(0,0)"/>
<path d="" fill="#000000" transform="translate(0,0)"/>
<path d="" fill="#000000" transform="translate(0,0)"/>
<path d="" fill="#000000" transform="translate(0,0)"/>
<path d="" fill="#000000" transform="translate(0,0)"/>
<path d="" fill="#000000" transform="translate(0,0)"/>
<path d="" fill="#000000" transform="translate(0,0)"/>
<path d="" fill="#000000" transform="translate(0,0)"/>
<path d="" fill="#000000" transform="translate(0,0)"/>
<path d="" fill="#000000" transform="translate(0,0)"/>
<path d="" fill="#000000" transform="translate(0,0)"/>
<path d="" fill="#000000" transform="translate(0,0)"/>
<path d="" fill="#000000" transform="translate(0,0)"/>
<path d="" fill="#000000" transform="translate(0,0)"/>
<path d="" fill="#000000" transform="translate(0,0)"/>
<path d="" fill="#000000" transform="translate(0,0)"/>
<path d="" fill="#000000" transform="translate(0,0)"/>
<path d="" fill="#000000" transform="translate(0,0)"/>
<path d="" fill="#000000" transform="translate(0,0)"/>
<path d="" fill="#000000" transform="translate(0,0)"/>
<path d="" fill="#000000" transform="translate(0,0)"/>
<path d="" fill="#000000" transform="translate(0,0)"/>
<path d="" fill="#000000" transform="translate(0,0)"/>
<path d="" fill="#000000" transform="translate(0,0)"/>
<path d="" fill="#000000" transform="translate(0,0)"/>
<path d="" fill="#000000" transform="translate(0,0)"/>
<path d="" fill="#000000" transform="translate(0,0)"/>
<path d="" fill="#000000" transform="translate(0,0)"/>
<path d="" fill="#000000" transform="translate(0,0)"/>
<path d="" fill="#000000" transform="translate(0,0)"/>
<path d="" fill="#000000" transform="translate(0,0)"/>
<path d="" fill="#000000" transform="translate(0,0)"/>
<path d="" fill="#000000" transform="translate(0,0)"/>
<path d="" fill="#000000" transform="translate(0,0)"/>
<path d="" fill="#000000" transform="translate(0,0)"/>
<path d="" fill="#000000" transform="translate(0,0)"/>
<path d="" fill="#000000" transform="translate(0,0)"/>
<path d="" fill="#000000" transform="translate(0,0)"/>
<path d="" fill="#000000" transform="translate(0,0)"/>
<path d="" fill="#000000" transform="translate(0,0)"/>
<path d="" fill="#000000" transform="translate(0,0)"/>
<path d="" fill="#000000" transform="translate(0,0)"/>
<path d="" fill="#000000" transform="translate(0,0)"/>
<path d="" fill="#000000" transform="translate(0,0)"/>
<path d="" fill="#000000" transform="translate(0,0)"/>
<path d="" fill="#000000" transform="translate(0,0)"/>
<path d="" fill="#000000" transform="translate(0,0)"/>
<path d="" fill="#000000" transform="translate(0,0)"/>
<path d="" fill="#000000" transform="translate(0,0)"/>
<path d="" fill="#000000" transform="translate(0,0)"/>
<path d="" fill="#000000" transform="translate(0,0)"/>
<path d="" fill="#000000" transform="translate(0,0)"/>
<path d="" fill="#000000" transform="translate(0,0)"/>
<path d="" fill="#000000" transform="translate(0,0)"/>
<path d="" fill="#000000" transform="translate(0,0)"/>
<path d="" fill="#000000" transform="translate(0,0)"/>
<path d="" fill="#000000" transform="translate(0,0)"/>
<path d="" fill="#000000" transform="translate(0,0)"/>
<path d="" fill="#000000" transform="translate(0,0)"/>
<path d="" fill="#000000" transform="translate(0,0)"/>
<path d="" fill="#000000" transform="translate(0,0)"/>
<path d="" fill="#000000" transform="translate(0,0)"/>
<path d="" fill="#000000" transform="translate(0,0)"/>
<path d="" fill="#000000" transform="translate(0,0)"/>
<path d="" fill="#000000" transform="translate(0,0)"/>
<path d="" fill="#000000" transform="translate(0,0)"/>
<path d="" fill="#000000" transform="translate(0,0)"/>
<path d="" fill="#000000" transform="translate(0,0)"/>
<path d="" fill="#000000" transform="translate(0,0)"/>
<path d="" fill="#000000" transform="translate(0,0)"/>
<path d="" fill="#000000" transform="translate(0,0)"/>
<path d="" fill="#000000" transform="translate(0,0)"/>
<path d="" fill="#000000" transform="translate(0,0)"/>
<path d="" fill="#000000" transform="translate(0,0)"/>
<path d="" fill="#000000" transform="translate(0,0)"/>
<path d="" fill="#000000" transform="translate(0,0)"/>
<path d="" fill="#000000" transform="translate(0,0)"/>
<path d="" fill="#000000" transform="translate(0,0)"/>
<path d="" fill="#000000" transform="translate(0,0)"/>
<path d="" fill="#000000" transform="translate(0,0)"/>
<path d="" fill="#000000" transform="translate(0,0)"/>
<path d="" fill="#000000" transform="translate(0,0)"/>
<path d="" fill="#000000" transform="translate(0,0)"/>
<path d="" fill="#000000" transform="translate(0,0)"/>
<path d="" fill="#000000" transform="translate(0,0)"/>
<path d="" fill="#000000" transform="translate(0,0)"/>
<path d="" fill="#000000" transform="translate(0,0)"/>
<path d="" fill="#000000" transform="translate(0,0)"/>
<path d="" fill="#000000" transform="translate(0,0)"/>
<path d="" fill="#000000" transform="translate(0,0)"/>
<path d="" fill="#000000" transform="translate(0,0)"/>
<path d="" fill="#000000" transform="translate(0,0)"/>
<path d="" fill="#000000" transform="translate(0,0)"/>
<path d="" fill="#000000" transform="translate(0,0)"/>
<path d="" fill="#000000" transform="translate(0,0)"/>
<path d="" fill="#000000" transform="translate(0,0)"/>
<path d="" fill="#000000" transform="translate(0,0)"/>
<path d="" fill="#000000" transform="translate(0,0)"/>
<path d="" fill="#000000" transform="translate(0,0)"/>
<path d="" fill="#000000" transform="translate(0,0)"/>
<path d="" fill="#000000" transform="translate(0,0)"/>
<path d="" fill="#000000" transform="translate(0,0)"/>
<path d="" fill="#000000" transform="translate(0,0)"/>
<path d="" fill="#000000" transform="translate(0,0)"/>
<path d="" fill="#000000" transform="translate(0,0)"/>
</svg>
